<svg width="145" height="36" viewBox="0 0 145 36" fill="none" xmlns="http://www.w3.org/2000/svg">
<g clip-path="url(#clip0_8606_12255)">
<g clip-path="url(#clip1_8606_12255)">
<g clip-path="url(#clip2_8606_12255)">
<g clip-path="url(#clip3_8606_12255)">
<g clip-path="url(#clip4_8606_12255)">
<g clip-path="url(#clip5_8606_12255)">
<g clip-path="url(#clip6_8606_12255)">
<path d="M13.8247 14.996L5.58657 26.0027H13.926V29.8854H0.218262V26.0702L8.38889 15.0635H0.252025V11.1808H13.8247V14.996ZM34.9603 20.128C34.9603 20.8032 34.9153 21.4109 34.8253 21.9512H21.1513C21.2638 23.3017 21.7365 24.3596 22.5693 25.1249C23.4021 25.8902 24.4263 26.2728 25.6418 26.2728C27.3974 26.2728 28.6467 25.5188 29.3894 24.0107H34.4876C33.9474 25.8114 32.912 27.2902 31.3814 28.4471C29.8509 29.6086 27.9714 30.1893 25.743 30.1893C23.9424 30.1893 22.3262 29.7887 20.8947 28.9873C19.4676 28.1905 18.3535 27.0606 17.5522 25.5976C16.7553 24.1345 16.3569 22.4463 16.3569 20.5331C16.3569 18.5974 16.7508 16.898 17.5386 15.4349C18.3264 13.9719 19.4294 12.8464 20.8474 12.0586C22.2655 11.2708 23.8973 10.8769 25.743 10.8769C27.5212 10.8769 29.1126 11.2596 30.5171 12.0249C31.9262 12.7901 33.0178 13.8751 33.7921 15.2796C34.5709 16.6886 34.9603 18.3048 34.9603 20.128ZM21.185 18.7774H30.0647C30.0422 17.562 29.6033 16.5874 28.7479 15.8536C27.8926 15.1243 26.846 14.7597 25.608 14.7597C24.4375 14.7597 23.4517 15.113 22.6504 15.8198C21.8535 16.5311 21.3651 17.517 21.185 18.7774ZM48.7694 10.9107C50.9977 10.9107 52.7984 11.6129 54.1714 13.0175C55.54 14.4265 56.2242 16.3915 56.2242 18.9125V29.8854H51.4974V19.554C51.4974 18.0684 51.1283 16.925 50.39 16.1237C49.6472 15.3269 48.6343 14.9285 47.3513 14.9285C46.0458 14.9285 45.0149 15.3269 44.2586 16.1237C43.5068 16.925 43.1309 18.0684 43.1309 19.554V29.8854H38.4041V11.1808H43.1309V13.5104C43.7567 12.7001 44.5602 12.0631 45.5416 11.5994C46.523 11.1403 47.5989 10.9107 48.7694 10.9107ZM62.8755 9.62769H59.6005V5.27227H67.7374V29.8854H62.8755V9.62769ZM82.6268 15.0635H78.4402V24.112C78.4402 24.7422 78.5933 25.1969 78.8994 25.476C79.201 25.7596 79.712 25.9014 80.4322 25.9014H82.6268V29.8854H79.6557C75.6717 29.8854 73.6797 27.9497 73.6797 24.0782V15.0635H71.4513V11.1808H73.6797V6.55526H78.4402V11.1808H82.6268V15.0635ZM96.5709 10.9107C97.989 10.9107 99.2495 11.219 100.352 11.8358C101.455 12.457 102.315 13.3686 102.932 14.5706C103.553 15.777 103.864 17.2243 103.864 18.9125V29.8854H99.1369V19.554C99.1369 18.0684 98.7655 16.925 98.0227 16.1237C97.28 15.3269 96.2671 14.9285 94.9841 14.9285C93.6786 14.9285 92.6477 15.3269 91.8914 16.1237C91.1396 16.925 90.7637 18.0684 90.7637 19.554V29.8854H86.0369V4.90088H90.7637V13.5104C91.3714 12.7001 92.1817 12.0631 93.1946 11.5994C94.2075 11.1403 95.333 10.9107 96.5709 10.9107Z" fill="#005249"/>
</g>
</g>
</g>
</g>
<g clip-path="url(#clip7_8606_12255)">
<path d="M119.39 0.0708008H109.837V35.0194H119.39V0.0708008Z" fill="#005249"/>
<path d="M131.039 0.0708008H121.487V35.0194H131.039V0.0708008Z" fill="#005249" fill-opacity="0.75"/>
<path d="M142.689 0.0708008H133.136V35.0194H142.689V0.0708008Z" fill="#005249" fill-opacity="0.5"/>
</g>
</g>
</g>
</g>
<defs>
<clipPath id="clip0_8606_12255">
<rect width="145" height="35.09" fill="white"/>
</clipPath>
<clipPath id="clip1_8606_12255">
<rect width="144.571" height="34.9486" fill="white" transform="translate(0.214844 0.0708008)"/>
</clipPath>
<clipPath id="clip2_8606_12255">
<rect width="144.571" height="34.9486" fill="white" transform="translate(0.214844 0.0708008)"/>
</clipPath>
<clipPath id="clip3_8606_12255">
<rect width="103.652" height="25.2884" fill="white" transform="translate(0.214844 4.90088)"/>
</clipPath>
<clipPath id="clip4_8606_12255">
<rect width="103.652" height="25.2884" fill="white" transform="translate(0.214844 4.90088)"/>
</clipPath>
<clipPath id="clip5_8606_12255">
<rect width="103.652" height="25.2884" fill="white" transform="translate(0.214844 4.90088)"/>
</clipPath>
<clipPath id="clip6_8606_12255">
<rect width="103.652" height="25.2884" fill="white" transform="translate(0.214844 4.90088)"/>
</clipPath>
<clipPath id="clip7_8606_12255">
<rect width="34.9486" height="34.9486" fill="white" transform="translate(109.837 0.0708008)"/>
</clipPath>
</defs>
</svg>
